<svg xmlns="http://www.w3.org/2000/svg" viewBox="0 0 166 225" id="svg8861052786"><path d="M 5.923 0.158 L 0 0.158 L 0 5.634 C 0.079 5.634 0.158 5.621 0.237 5.621 C 3.504 5.621 6.153 8.27 6.153 11.537 C 6.153 14.804 3.504 17.453 0.237 17.453 C 0.158 17.453 0.079 17.447 0 17.44 L 0 22.423 C 3.267 22.423 5.916 25.072 5.916 28.339 C 5.916 31.607 3.267 34.256 0 34.256 L 0 39.226 C 3.267 39.226 5.916 41.875 5.916 45.142 C 5.916 48.409 3.267 51.058 0 51.058 L 0 56.028 C 3.267 56.028 5.916 58.677 5.916 61.945 C 5.916 65.212 3.267 67.861 0 67.861 L 0 72.831 C 3.267 72.831 5.916 75.48 5.916 78.747 C 5.916 82.014 3.267 84.664 0 84.664 L 0 89.633 C 3.267 89.633 5.916 92.282 5.916 95.549 C 5.916 98.817 3.267 101.466 0 101.466 L 0 106.435 C 3.267 106.435 5.916 109.085 5.916 112.352 C 5.916 115.619 3.267 118.268 0 118.268 L 0 123.238 C 3.267 123.238 5.916 125.887 5.916 129.154 C 5.916 132.421 3.267 135.071 0 135.071 L 0 140.041 C 3.267 140.041 5.916 142.69 5.916 145.957 C 5.916 149.224 3.267 151.874 0 151.874 L 0 156.843 C 3.267 156.843 5.916 159.493 5.916 162.76 C 5.916 166.027 3.267 168.676 0 168.676 L 0 173.646 C 3.267 173.646 5.916 176.295 5.916 179.562 C 5.916 182.829 3.267 185.479 0 185.479 L 0 190.448 C 3.267 190.448 5.916 193.097 5.916 196.365 C 5.916 199.632 3.267 202.281 0 202.281 L 0 207.251 C 3.267 207.251 5.916 209.9 5.916 213.167 C 5.916 216.434 3.267 219.084 0 219.084 L 0 225 L 5.923 225 C 5.923 224.96 5.923 224.921 5.923 224.882 C 5.923 221.614 8.572 218.965 11.839 218.965 C 15.107 218.965 17.756 221.614 17.756 224.882 C 17.756 224.921 17.756 224.96 17.756 225 L 23.672 225 C 23.672 224.96 23.672 224.921 23.672 224.882 C 23.672 221.614 26.321 218.965 29.588 218.965 C 32.856 218.965 35.505 221.614 35.505 224.882 C 35.505 224.921 35.505 224.96 35.505 225 L 41.421 225 C 41.421 224.96 41.421 224.921 41.421 224.882 C 41.421 221.614 44.07 218.965 47.338 218.965 C 50.605 218.965 53.254 221.614 53.254 224.882 C 53.254 224.921 53.254 224.96 53.254 225 L 59.17 225 C 59.17 224.96 59.17 224.921 59.17 224.882 C 59.17 221.614 61.82 218.965 65.087 218.965 C 68.354 218.965 71.003 221.614 71.003 224.882 C 71.003 224.921 71.003 224.96 71.003 225 L 76.919 225 C 76.919 224.96 76.919 224.921 76.919 224.882 C 76.919 221.614 79.569 218.965 82.836 218.965 C 86.103 218.965 88.752 221.614 88.752 224.882 C 88.752 224.921 88.752 224.96 88.752 225 L 94.669 225 C 94.669 224.96 94.669 224.921 94.669 224.882 C 94.669 221.614 97.318 218.965 100.585 218.965 C 103.853 218.965 106.501 221.614 106.501 224.882 C 106.501 224.921 106.501 224.96 106.501 225 L 112.417 225 C 112.417 224.96 112.417 224.921 112.417 224.882 C 112.417 221.614 115.067 218.965 118.334 218.965 C 121.601 218.965 124.25 221.614 124.25 224.882 C 124.25 224.921 124.25 224.96 124.25 225 L 130.167 225 C 130.167 224.96 130.167 224.921 130.167 224.882 C 130.167 221.614 132.816 218.965 136.083 218.965 C 139.351 218.965 142 221.614 142 224.882 C 142 224.921 142 224.96 142 225 L 147.916 225 C 147.982 221.785 150.599 219.202 153.826 219.202 C 157.054 219.202 159.67 221.785 159.736 225 L 165.777 225 L 165.777 219.077 C 165.737 219.077 165.698 219.077 165.658 219.077 C 162.391 219.077 159.743 216.427 159.743 213.16 C 159.743 209.893 162.391 207.245 165.658 207.245 C 165.698 207.245 165.737 207.245 165.777 207.245 L 165.777 202.262 C 165.737 202.262 165.698 202.262 165.658 202.262 C 162.391 202.262 159.743 199.613 159.743 196.345 C 159.743 193.078 162.391 190.429 165.658 190.429 C 165.698 190.429 165.737 190.429 165.777 190.429 L 165.777 185.446 C 165.737 185.446 165.698 185.446 165.658 185.446 C 162.391 185.446 159.743 182.797 159.743 179.529 C 159.743 176.262 162.391 173.613 165.658 173.613 C 165.698 173.613 165.737 173.613 165.777 173.613 L 165.777 168.63 C 165.737 168.63 165.698 168.63 165.658 168.63 C 162.391 168.63 159.743 165.981 159.743 162.714 C 159.743 159.446 162.391 156.797 165.658 156.797 C 165.698 156.797 165.737 156.797 165.777 156.797 L 165.777 151.814 C 165.737 151.814 165.698 151.814 165.658 151.814 C 162.391 151.814 159.743 149.165 159.743 145.898 C 159.743 142.63 162.391 139.982 165.658 139.982 C 165.698 139.982 165.737 139.982 165.777 139.982 L 165.777 134.999 C 165.737 134.999 165.698 134.999 165.658 134.999 C 162.391 134.999 159.743 132.349 159.743 129.083 C 159.743 125.815 162.391 123.166 165.658 123.166 C 165.698 123.166 165.737 123.166 165.777 123.166 L 165.777 118.183 C 165.737 118.183 165.698 118.183 165.658 118.183 C 162.391 118.183 159.743 115.534 159.743 112.267 C 159.743 109 162.391 106.35 165.658 106.35 C 165.698 106.35 165.737 106.35 165.777 106.35 L 165.777 101.367 C 165.737 101.367 165.698 101.367 165.658 101.367 C 162.391 101.367 159.743 98.718 159.743 95.451 C 159.743 92.184 162.391 89.534 165.658 89.534 C 165.698 89.534 165.737 89.534 165.777 89.534 L 165.777 84.552 C 165.737 84.552 165.698 84.552 165.658 84.552 C 162.391 84.552 159.743 81.902 159.743 78.635 C 159.743 75.368 162.391 72.719 165.658 72.719 C 165.698 72.719 165.737 72.719 165.777 72.719 L 165.777 67.736 C 165.737 67.736 165.698 67.736 165.658 67.736 C 162.391 67.736 159.743 65.087 159.743 61.82 C 159.743 58.552 162.391 55.903 165.658 55.903 C 165.698 55.903 165.737 55.903 165.777 55.903 L 165.777 50.92 C 165.737 50.92 165.698 50.92 165.658 50.92 C 162.391 50.92 159.743 48.271 159.743 45.004 C 159.743 41.737 162.391 39.088 165.658 39.088 C 165.698 39.088 165.737 39.088 165.777 39.088 L 165.777 34.105 C 165.737 34.105 165.698 34.105 165.658 34.105 C 162.391 34.105 159.743 31.455 159.743 28.188 C 159.743 24.921 162.391 22.272 165.658 22.272 C 165.698 22.272 165.737 22.272 165.777 22.272 L 165.777 17.289 C 162.563 17.223 159.979 14.607 159.979 11.379 C 159.979 8.151 162.563 5.535 165.777 5.469 L 165.777 0 L 159.736 0 C 159.736 0.039 159.736 0.079 159.736 0.118 C 159.736 3.385 157.087 6.035 153.819 6.035 C 150.552 6.035 147.903 3.385 147.903 0.118 C 147.903 0.079 147.903 0.039 147.903 0 L 141.986 0 C 141.921 3.215 139.304 5.798 136.077 5.798 C 132.849 5.798 130.233 3.215 130.167 0 L 124.25 0 C 124.185 3.215 121.568 5.798 118.341 5.798 C 115.113 5.798 112.497 3.215 112.431 0 L 106.514 0 C 106.449 3.215 103.832 5.798 100.605 5.798 C 97.377 5.798 94.761 3.215 94.695 0 L 88.778 0 C 88.713 3.215 86.096 5.798 82.869 5.798 C 79.641 5.798 77.025 3.215 76.959 0 L 71.043 0 C 70.977 3.215 68.36 5.798 65.133 5.798 C 61.905 5.798 59.289 3.215 59.223 0 L 53.307 0 C 53.241 3.215 50.624 5.798 47.397 5.798 C 44.169 5.798 41.553 3.215 41.487 0 L 35.571 0 C 35.505 3.215 32.888 5.798 29.661 5.798 C 26.433 5.798 23.817 3.215 23.751 0 L 17.835 0 C 17.769 3.215 15.152 5.798 11.925 5.798 C 8.697 5.798 6.081 3.215 6.015 0 Z M 153.826 11.991 L 153.826 213.148 L 11.833 213.148 L 11.833 11.991 Z" fill="var(--token-fa9cf1de-28ff-4da4-86e6-3dbbf2b95825, rgb(245, 228, 225)) /* {&quot;name&quot;:&quot;Light red&quot;} */"/><path d="M 11.295 11.477 L 156.122 11.477 L 156.122 213.597 L 11.295 213.597 Z" fill="var(--token-fa9cf1de-28ff-4da4-86e6-3dbbf2b95825, rgb(245, 228, 225)) /* {&quot;name&quot;:&quot;Light red&quot;} */"/></svg>